<svg xmlns="http://www.w3.org/2000/svg" xmlns:xlink="http://www.w3.org/1999/xlink" fill="none" version="1.1"
     width="25.3525390625" height="24" viewBox="0 0 25.3525390625 24">
    <g>
        <g>
            <g>
                <g>
                    <path d="M12.67626546875,12.250000023841858C12.21146546875,12.250000023841858,11.74666546875,12.140000023841857,11.32411546875,11.930000023841858C11.32411546875,11.930000023841858,4.4472154687500005,8.420000023841858,4.4472154687500005,8.420000023841858C3.82395846875,8.100000023841858,3.43310546875,7.470000023841858,3.43310546875,6.770000023841858C3.43310546875,6.070000023841858,3.82395846875,5.440000023841858,4.4472154687500005,5.1200000238418575C4.4472154687500005,5.1200000238418575,11.32411546875,1.610000023841858,11.32411546875,1.610000023841858C12.16920546875,1.180000023841858,13.18331546875,1.180000023841858,14.01780546875,1.610000023841858C14.01780546875,1.610000023841858,20.89470546875,5.1200000238418575,20.89470546875,5.1200000238418575C21.51800546875,5.440000023841858,21.90880546875,6.070000023841858,21.90880546875,6.770000023841858C21.90880546875,7.470000023841858,21.51800546875,8.100000023841858,20.89470546875,8.420000023841858C20.89470546875,8.420000023841858,14.01780546875,11.930000023841858,14.01780546875,11.930000023841858C13.60590546875,12.150000023841859,13.14105546875,12.250000023841858,12.67626546875,12.250000023841858C12.67626546875,12.250000023841858,12.67626546875,12.250000023841858,12.67626546875,12.250000023841858ZM12.67626546875,2.7800000238418576C12.47555546875,2.7800000238418576,12.26427546875,2.830000023841858,12.07413546875,2.930000023841858C12.07413546875,2.930000023841858,5.20779546875,6.430000023841858,5.20779546875,6.430000023841858C5.02820546875,6.520000023841858,5.0176454687500005,6.710000023841858,5.0176454687500005,6.770000023841858C5.0176454687500005,6.830000023841858,5.02820546875,7.020000023841858,5.20779546875,7.100000023841858C5.20779546875,7.100000023841858,12.08469546875,10.610000023841858,12.08469546875,10.610000023841858C12.46498546875,10.800000023841857,12.89809546875,10.800000023841857,13.27838546875,10.610000023841858C13.27838546875,10.610000023841858,20.15530546875,7.100000023841858,20.15530546875,7.100000023841858C20.32430546875,7.010000023841858,20.34540546875,6.820000023841858,20.34540546875,6.770000023841858C20.34540546875,6.710000023841858,20.33490546875,6.520000023841858,20.15530546875,6.440000023841858C20.15530546875,6.440000023841858,13.27838546875,2.930000023841858,13.27838546875,2.930000023841858C13.08824546875,2.830000023841858,12.87696546875,2.7800000238418576,12.67626546875,2.7800000238418576C12.67626546875,2.7800000238418576,12.67626546875,2.7800000238418576,12.67626546875,2.7800000238418576Z"
                          fill="#503E75" fill-opacity="1"/>
                </g>
                <g>
                    <path d="M10.331316640625,22.719962890625C10.035536640625,22.719962890625,9.729186640625,22.650062890625,9.454536640625,22.519962890625C9.454536640625,22.519962890625,3.052986640625,19.499962890625,3.052986640625,19.499962890625C1.9860636406249998,18.990012890625,1.320556640625,17.970012890625,1.320556640625,16.840012890625C1.320556640625,16.840012890625,1.320556640625,11.120012890625,1.320556640625,11.120012890625C1.320556640625,10.470012890625,1.669155640625,9.880012890625,2.2501536406250002,9.540012890625C2.841716640625,9.200012490625,3.549476640625,9.170012590625,4.162166640625,9.460012890625C4.162166640625,9.460012890625,10.563716640625,12.480012890625,10.563716640625,12.480012890625C11.630656640625,12.990012890625,12.296156640625,14.000012890625001,12.296156640625,15.140012890625C12.296156640625,15.140012890625,12.296156640625,20.860062890625002,12.296156640625,20.860062890625002C12.296156640625,21.509962890624998,11.947556640625,22.099962890625,11.366556640625,22.440062890625C11.049636640625,22.629962890625002,10.690476640625,22.719962890625,10.331316640625,22.719962890625C10.331316640625,22.719962890625,10.331316640625,22.719962890625,10.331316640625,22.719962890625ZM3.285386640625,10.760012890625C3.200876640625,10.760012890625,3.126936640625,10.790012890625,3.084676640625,10.810012890625C3.0212966406249997,10.850012890624999,2.905096640625,10.940012890625,2.905096640625,11.120012890625C2.905096640625,11.120012890625,2.905096640625,16.840012890625,2.905096640625,16.840012890625C2.905096640625,17.400012890625,3.232566640625,17.910012890624998,3.760746640625,18.160012890624998C3.760746640625,18.160012890624998,10.151726640625,21.190062890625,10.151726640625,21.190062890625C10.320746640625,21.269962890625,10.458076640625,21.209962890625,10.521456640625,21.179962890625C10.584836640625,21.139962890625,10.701036640625,21.050062890625,10.701036640625,20.870062890625C10.701036640625,20.870062890625,10.701036640625,15.150012890625,10.701036640625,15.150012890625C10.701036640625,14.590012890625001,10.373566640625,14.080012890625,9.845386640625,13.830012890625C9.845386640625,13.830012890625,3.454406640625,10.800012890625,3.454406640625,10.800012890625C3.391026640625,10.770012890625,3.338206640625,10.760012890625,3.285386640625,10.760012890625C3.285386640625,10.760012890625,3.285386640625,10.760012890625,3.285386640625,10.760012890625Z"
                          fill="#503E75" fill-opacity="1"/>
                </g>
                <g>
                    <path d="M15.021470625,22.71995026397705C14.662310625,22.71995026397705,14.303150625,22.62995026397705,13.986237625,22.44005026397705C13.405239625,22.100050263977053,13.056640625,21.50995026397705,13.056640625,20.86005026397705C13.056640625,20.86005026397705,13.056640625,15.14000026397705,13.056640625,15.14000026397705C13.056640625,14.010000263977052,13.722147625,12.99000026397705,14.789070625,12.48000026397705C14.789070625,12.48000026397705,21.180050625,9.450000263977051,21.180050625,9.450000263977051C21.792740625,9.15999996397705,22.511070625000002,9.18999986397705,23.092040625,9.530000263977051C23.673040625,9.870000263977051,24.021640625,10.46000026397705,24.021640625,11.110000263977051C24.021640625,11.110000263977051,24.021640625,16.830000263977052,24.021640625,16.830000263977052C24.021640625,17.96000026397705,23.356140625000002,18.98000026397705,22.289230625000002,19.48995026397705C22.289230625000002,19.48995026397705,15.898250625,22.52005026397705,15.898250625,22.52005026397705C15.623600625,22.66005026397705,15.317250625,22.71995026397705,15.021470625,22.71995026397705C15.021470625,22.71995026397705,15.021470625,22.71995026397705,15.021470625,22.71995026397705ZM22.067400624999998,10.760000263977052C22.014580625,10.760000263977052,21.961760625,10.770000263977051,21.898380625,10.80000026397705C21.898380625,10.80000026397705,15.507400624999999,13.830000263977052,15.507400624999999,13.830000263977052C14.979220625,14.080000263977052,14.651740625,14.580000263977052,14.651740625,15.15000026397705C14.651740625,15.15000026397705,14.651740625,20.87005026397705,14.651740625,20.87005026397705C14.651740625,21.05005026397705,14.767940625,21.140050263977052,14.831330625,21.18005026397705C14.894710625,21.22005026397705,15.032030625,21.27005026397705,15.201050625,21.19005026397705C15.201050625,21.19005026397705,21.592030625,18.16000026397705,21.592030625,18.16000026397705C22.120210625,17.91000026397705,22.447690625,17.40000026397705,22.447690625,16.84000026397705C22.447690625,16.84000026397705,22.447690625,11.120000263977051,22.447690625,11.120000263977051C22.447690625,10.940000263977051,22.331490625,10.850000263977051,22.268110625,10.81000026397705C22.225850625,10.790000263977051,22.151910625,10.760000263977052,22.067400624999998,10.760000263977052C22.067400624999998,10.760000263977052,22.067400624999998,10.760000263977052,22.067400624999998,10.760000263977052Z"
                          fill="#503E75" fill-opacity="1"/>
                </g>
            </g>
        </g>
    </g>
</svg>