<svg xmlns="http://www.w3.org/2000/svg" xmlns:xlink="http://www.w3.org/1999/xlink" fill="none" version="1.1"
     width="25.3525390625" height="24" viewBox="0 0 25.3525390625 24">
    <g>
        <g>
            <g>
                <g>
                    <path d="M14.155132890625,17.419999923706055C14.155132890625,17.419999923706055,11.503662890625,17.419999923706055,11.503662890625,17.419999923706055C9.771232890625,17.419999923706055,8.366276690625,16.039999923706056,8.366276690625,14.339999923706054C8.366276690625,13.929999923706054,8.725438890625,13.589999923706054,9.158546890625,13.589999923706054C9.591652890625,13.589999923706054,9.950812890625,13.929999923706054,9.950812890625,14.339999923706054C9.950812890625,15.209999923706055,10.648012890625001,15.919999923706055,11.503662890625,15.919999923706055C11.503662890625,15.919999923706055,14.155132890625,15.919999923706055,14.155132890625,15.919999923706055C14.841762890624999,15.919999923706055,15.412202890625,15.339999923706054,15.412202890625,14.639999923706055C15.412202890625,13.769999923706056,15.084732890625,13.599999923706054,14.545982890625,13.419999923706055C14.545982890625,13.419999923706055,10.288852890625,11.999999923706055,10.288852890625,11.999999923706055C9.464892890625,11.729999923706055,8.355712890625,11.149999923706055,8.355712890625,9.359999923706054C8.355712890625,7.819999923706055,9.633912890625,6.579999923706055,11.197322890625,6.579999923706055C11.197322890625,6.579999923706055,13.848792890624999,6.579999923706055,13.848792890624999,6.579999923706055C15.581222890625,6.579999923706055,16.986182890625003,7.959999923706055,16.986182890625003,9.659999923706055C16.986182890625003,10.069999923706055,16.627012890625,10.409999923706055,16.193912890625,10.409999923706055C15.760802890625001,10.409999923706055,15.401642890625,10.069999923706055,15.401642890625,9.659999923706055C15.401642890625,8.789999923706056,14.704442890625,8.079999923706055,13.848792890624999,8.079999923706055C13.848792890624999,8.079999923706055,11.197322890625,8.079999923706055,11.197322890625,8.079999923706055C10.510692890625,8.079999923706055,9.940252890625,8.659999923706055,9.940252890625,9.359999923706054C9.940252890625,10.229999923706055,10.267722890625,10.399999923706055,10.806472890624999,10.579999923706055C10.806472890624999,10.579999923706055,15.063602890624999,11.999999923706055,15.063602890624999,11.999999923706055C15.887562890625,12.269999923706056,16.996742890625,12.849999923706054,16.996742890625,14.639999923706055C16.986182890625003,16.169999923706055,15.718542890624999,17.419999923706055,14.155132890625,17.419999923706055C14.155132890625,17.419999923706055,14.155132890625,17.419999923706055,14.155132890625,17.419999923706055Z"
                          fill="#503E75" fill-opacity="1"/>
                </g>
                <g>
                    <path d="M12.676304203125,18.75C12.243196203125,18.75,11.884033203125,18.41,11.884033203125,18C11.884033203125,18,11.884033203125,6,11.884033203125,6C11.884033203125,5.59,12.243196203125,5.25,12.676304203125,5.25C13.109413203125,5.25,13.468573203125,5.59,13.468573203125,6C13.468573203125,6,13.468573203125,18,13.468573203125,18C13.468573203125,18.41,13.109413203125,18.75,12.676304203125,18.75C12.676304203125,18.75,12.676304203125,18.75,12.676304203125,18.75Z"
                          fill="#503E75" fill-opacity="1"/>
                </g>
                <g>
                    <path d="M12.676456640625,22.75C6.412216640625,22.75,1.320556640625,17.93,1.320556640625,12C1.320556640625,6.07,6.412216640625,1.25,12.676456640625,1.25C18.940656640625,1.25,24.032356640625,6.07,24.032356640625,12C24.032356640625,17.93,18.940656640625,22.75,12.676456640625,22.75C12.676456640625,22.75,12.676456640625,22.75,12.676456640625,22.75ZM12.676456640625,2.75C7.288996640625,2.75,2.905096640625,6.9,2.905096640625,12C2.905096640625,17.1,7.288996640625,21.25,12.676456640625,21.25C18.063856640625,21.25,22.447756640625,17.1,22.447756640625,12C22.447756640625,6.9,18.063856640625,2.75,12.676456640625,2.75C12.676456640625,2.75,12.676456640625,2.75,12.676456640625,2.75Z"
                          fill="#503E75" fill-opacity="1"/>
                </g>
            </g>
        </g>
    </g>
</svg>