<svg xmlns="http://www.w3.org/2000/svg" xmlns:xlink="http://www.w3.org/1999/xlink" fill="none" version="1.1"
     width="25.3525390625" height="24" viewBox="0 0 25.3525390625 24">
    <g>
        <g>
            <g>
                <g>
                    <path d="M12.644718359375,22.75C6.391038359375,22.75,1.288818359375,17.93,1.288818359375,12C1.288818359375,6.07,6.391038359375,1.25,12.644718359375,1.25C18.898318359375,1.25,24.000618359375,6.07,24.000618359375,12C24.000618359375,17.93,18.908918359375,22.75,12.644718359375,22.75C12.644718359375,22.75,12.644718359375,22.75,12.644718359375,22.75ZM12.644718359375,2.75C7.257258359375,2.75,2.873358359375,6.9,2.873358359375,12C2.873358359375,17.1,7.257258359375,21.25,12.644718359375,21.25C18.032118359375,21.25,22.416018359375,17.1,22.416018359375,12C22.416018359375,6.9,18.032118359375,2.75,12.644718359375,2.75C12.644718359375,2.75,12.644718359375,2.75,12.644718359375,2.75Z"
                          fill="#503E75" fill-opacity="1"/>
                </g>
                <g>
                    <path d="M12.676345703125001,19.24999482849121C10.405165703125,19.24999482849121,8.271315703125,18.20000482849121,6.971991703125,16.43000482849121C6.718464703125,16.089999828491212,6.813537603125,15.619999828491212,7.172699703125,15.389999828491211C7.531862703125,15.149999828491211,8.028355703125,15.23999992849121,8.271315703125,15.57999982849121C9.274865703125,16.939994828491212,10.922785703125001,17.760004828491212,12.676345703125001,17.760004828491212C14.429895703125,17.760004828491212,16.077825703125,16.94999482849121,17.081345703125002,15.57999982849121C17.334845703124998,15.23999992849121,17.820745703125,15.160000328491211,18.179945703125,15.389999828491211C18.539145703125,15.629999828491211,18.623645703125,16.089999828491212,18.380645703124998,16.43000482849121C17.081345703125002,18.20000482849121,14.947515703125,19.24999482849121,12.676345703125001,19.24999482849121C12.676345703125001,19.24999482849121,12.676345703125001,19.24999482849121,12.676345703125001,19.24999482849121Z"
                          fill="#503E75" fill-opacity="1"/>
                </g>
            </g>
        </g>
    </g>
</svg>