<svg xmlns="http://www.w3.org/2000/svg" xmlns:xlink="http://www.w3.org/1999/xlink" fill="none" version="1.1"
     width="25.3525390625" height="24" viewBox="0 0 25.3525390625 24">
    <g>
        <g>
            <g>
                <g>
                    <path d="M19.8067984375,8C19.8067984375,8,19.8067984375,10.1,19.8067984375,10.1C19.3419984375,10.04,18.813798437499997,10.01,18.222198437499998,10C18.222198437499998,10,18.222198437499998,8,18.222198437499998,8C18.222198437499998,4.85,17.2820984375,2.75,12.6763284375,2.75C8.0705984375,2.75,7.1304384375000005,4.85,7.1304384375000005,8C7.1304384375000005,8,7.1304384375000005,10,7.1304384375000005,10C6.5388774375,10.01,6.0106974375,10.04,5.5458984375,10.1C5.5458984375,10.1,5.5458984375,8,5.5458984375,8C5.5458984375,5.1,6.2853504375,1.25,12.6763284375,1.25C19.0672984375,1.25,19.8067984375,5.1,19.8067984375,8C19.8067984375,8,19.8067984375,8,19.8067984375,8Z"
                          fill="#503E75" fill-opacity="1"/>
                </g>
                <g>
                    <path d="M19.80679296875,10.1C19.34199296875,10.0400004,18.81389296875,10.01,18.22229296875,10C18.22229296875,10,7.13050296875,10,7.13050296875,10C6.53894296875,10.01,6.01076296875,10.0400004,5.5459629687500005,10.1C2.85224496875,10.41,2.11279296875,11.66,2.11279296875,15C2.11279296875,15,2.11279296875,17,2.11279296875,17C2.11279296875,21,3.1691529687499997,22,7.39459296875,22C7.39459296875,22,17.958192968749998,22,17.958192968749998,22C22.18369296875,22,23.23999296875,21,23.23999296875,17C23.23999296875,17,23.23999296875,15,23.23999296875,15C23.23999296875,11.66,22.50059296875,10.41,19.80679296875,10.1C19.80679296875,10.1,19.80679296875,10.1,19.80679296875,10.1ZM9.200972968750001,16.71C9.00026296875,16.89,8.72561296875,17,8.45095296875,17C8.31363296875,17,8.17630296875,16.97,8.04954296875,16.92C7.91221296875,16.87,7.80657296875,16.8,7.70094296875,16.71C7.51079296875,16.52,7.39459296875,16.259999999999998,7.39459296875,16C7.39459296875,15.870000000000001,7.42628296875,15.74,7.47910296875,15.620000000000001C7.53192296875,15.5,7.60587296875,15.39,7.70094296875,15.29C7.80657296875,15.2,7.91221296875,15.129999999999999,8.04954296875,15.08C8.44039296875,14.92,8.90519296875,15.01,9.200972968750001,15.29C9.296042968750001,15.39,9.369992968750001,15.5,9.42281296875,15.620000000000001C9.475622968749999,15.74,9.50732296875,15.870000000000001,9.50732296875,16C9.50732296875,16.259999999999998,9.39112296875,16.52,9.200972968750001,16.71C9.200972968750001,16.71,9.200972968750001,16.71,9.200972968750001,16.71ZM13.64829296875,16.38C13.59539296875,16.5,13.52149296875,16.61,13.42639296875,16.71C13.22569296875,16.89,12.95109296875,17,12.67639296875,17C12.39119296875,17,12.12709296875,16.89,11.92638296875,16.71C11.83131296875,16.61,11.75736296875,16.5,11.70454296875,16.38C11.65173296875,16.259999999999998,11.62004296875,16.13,11.62004296875,16C11.62004296875,15.73,11.73624296875,15.48,11.92638296875,15.29C12.31719296875,14.92,13.02499296875,14.92,13.42639296875,15.29C13.61659296875,15.48,13.73279296875,15.73,13.73279296875,16C13.73279296875,16.13,13.70109296875,16.259999999999998,13.64829296875,16.38C13.64829296875,16.38,13.64829296875,16.38,13.64829296875,16.38ZM17.651892968749998,16.71C17.45119296875,16.89,17.17649296875,17,16.901892968749998,17C16.627192968750002,17,16.35249296875,16.89,16.15179296875,16.71C15.96169296875,16.52,15.84549296875,16.27,15.84549296875,16C15.84549296875,15.73,15.96169296875,15.48,16.15179296875,15.29C16.55329296875,14.92,17.26099296875,14.92,17.651892968749998,15.29C17.69409296875,15.34,17.73639296875,15.39,17.77859296875,15.45C17.82089296875,15.5,17.852592968750002,15.559999999999999,17.87369296875,15.620000000000001C17.90539296875,15.68,17.92649296875,15.74,17.93709296875,15.8C17.94759296875,15.870000000000001,17.958192968749998,15.940000000000001,17.958192968749998,16C17.958192968749998,16.259999999999998,17.84199296875,16.52,17.651892968749998,16.71C17.651892968749998,16.71,17.651892968749998,16.71,17.651892968749998,16.71Z"
                          fill="#503E75" fill-opacity="1"/>
                </g>
            </g>
        </g>
    </g>
</svg>