<svg xmlns="http://www.w3.org/2000/svg" xmlns:xlink="http://www.w3.org/1999/xlink" fill="none" version="1.1"
     width="25.3525390625" height="24" viewBox="0 0 25.3525390625 24">
    <g>
        <g>
            <g>
                <g>
                    <path d="M11.588193671875,22.75C7.658533671875,22.75,4.457763671875,19.72,4.457763671875,16C4.457763671875,16,4.457763671875,10,4.457763671875,10C4.457763671875,5.73,8.133903671875,2.25,12.644563671875,2.25C17.155263671874998,2.25,20.831363671875,5.73,20.831363671875,10C20.831363671875,10,20.831363671875,15.5,20.831363671875,15.5C20.831363671875,17.84,18.813663671875,19.75,16.341863671875,19.75C13.869933671875,19.75,11.852293671875,17.84,11.852293671875,15.5C11.852293671875,15.5,11.852293671875,12,11.852293671875,12C11.852293671875,11.59,12.211453671874999,11.25,12.644563671875,11.25C13.077663671875,11.25,13.436833671875,11.59,13.436833671875,12C13.436833671875,12,13.436833671875,15.5,13.436833671875,15.5C13.436833671875,17.02,14.736163671875,18.25,16.341863671875,18.25C17.947463671875,18.25,19.246863671874998,17.02,19.246863671874998,15.5C19.246863671874998,15.5,19.246863671874998,10,19.246863671874998,10C19.246863671874998,6.55,16.288963671875003,3.75,12.644563671875,3.75C9.000113671874999,3.75,6.0423036718750005,6.55,6.0423036718750005,10C6.0423036718750005,10,6.0423036718750005,16,6.0423036718750005,16C6.0423036718750005,18.89,8.524753671875,21.25,11.588193671875,21.25C12.021303671875,21.25,12.380473671875,21.59,12.380473671875,22C12.380473671875,22.41,12.031873671875001,22.75,11.588193671875,22.75C11.588193671875,22.75,11.588193671875,22.75,11.588193671875,22.75Z"
                          fill="#503E75" fill-opacity="1"/>
                </g>
            </g>
        </g>
    </g>
</svg>